<svg width="412" height="71" viewBox="0 0 412 71" fill="none" xmlns="http://www.w3.org/2000/svg">
<rect width="412" height="71" fill="#E5E5E5"/>
<g clip-path="url(#clip0_0_1)">
<rect width="1440" height="1890" transform="translate(-514 -676)" fill="#EFEFEF"/>
<mask id="path-1-outside-1_0_1" maskUnits="userSpaceOnUse" x="16" y="9" width="384" height="54" fill="black">
<rect fill="white" x="16" y="9" width="384" height="54"/>
<path d="M55.2812 44.1875C54.8229 49.0417 53.0312 52.8333 49.9062 55.5625C46.7812 58.2708 42.625 59.625 37.4375 59.625C33.8125 59.625 30.6146 58.7708 27.8438 57.0625C25.0938 55.3333 22.9688 52.8854 21.4688 49.7188C19.9688 46.5521 19.1875 42.875 19.125 38.6875V34.4375C19.125 30.1458 19.8854 26.3646 21.4062 23.0938C22.9271 19.8229 25.1042 17.3021 27.9375 15.5312C30.7917 13.7604 34.0833 12.875 37.8125 12.875C42.8333 12.875 46.875 14.2396 49.9375 16.9688C53 19.6979 54.7812 23.5521 55.2812 28.5312H47.4062C47.0312 25.2604 46.0729 22.9062 44.5312 21.4688C43.0104 20.0104 40.7708 19.2812 37.8125 19.2812C34.375 19.2812 31.7292 20.5417 29.875 23.0625C28.0417 25.5625 27.1042 29.2396 27.0625 34.0938V38.125C27.0625 43.0417 27.9375 46.7917 29.6875 49.375C31.4583 51.9583 34.0417 53.25 37.4375 53.25C40.5417 53.25 42.875 52.5521 44.4375 51.1562C46 49.7604 46.9896 47.4375 47.4062 44.1875H55.2812ZM87.8438 48.4062H70.2188L66.5312 59H58.3125L75.5 13.5H82.5938L99.8125 59H91.5625L87.8438 48.4062ZM72.4375 42.0312H85.625L79.0312 23.1562L72.4375 42.0312ZM134.125 19.875H119.938V59H112.094V19.875H98.0312V13.5H134.125V19.875ZM166.719 38.6875H148.031V52.6875H169.875V59H140.125V13.5H169.656V19.875H148.031V32.4375H166.719V38.6875ZM211.188 53.0938C209.542 55.2396 207.26 56.8646 204.344 57.9688C201.427 59.0729 198.115 59.625 194.406 59.625C190.594 59.625 187.219 58.7604 184.281 57.0312C181.344 55.3021 179.073 52.8333 177.469 49.625C175.885 46.3958 175.062 42.6354 175 38.3438V34.7812C175 27.9062 176.646 22.5417 179.938 18.6875C183.229 14.8125 187.823 12.875 193.719 12.875C198.781 12.875 202.802 14.125 205.781 16.625C208.76 19.125 210.552 22.7292 211.156 27.4375H203.406C202.531 21.9583 199.354 19.2188 193.875 19.2188C190.333 19.2188 187.635 20.5 185.781 23.0625C183.948 25.6042 183 29.3438 182.938 34.2812V37.7812C182.938 42.6979 183.969 46.5208 186.031 49.25C188.115 51.9583 191 53.3125 194.688 53.3125C198.729 53.3125 201.604 52.3958 203.312 50.5625V41.6562H193.938V35.6562H211.188V53.0938ZM256.188 37.4375C256.188 41.8958 255.417 45.8125 253.875 49.1875C252.333 52.5417 250.125 55.125 247.25 56.9375C244.396 58.7292 241.104 59.625 237.375 59.625C233.688 59.625 230.396 58.7292 227.5 56.9375C224.625 55.125 222.396 52.5521 220.812 49.2188C219.25 45.8854 218.458 42.0417 218.438 37.6875V35.125C218.438 30.6875 219.219 26.7708 220.781 23.375C222.365 19.9792 224.583 17.3854 227.438 15.5938C230.312 13.7812 233.604 12.875 237.312 12.875C241.021 12.875 244.302 13.7708 247.156 15.5625C250.031 17.3333 252.25 19.8958 253.812 23.25C255.375 26.5833 256.167 30.4688 256.188 34.9062V37.4375ZM248.281 35.0625C248.281 30.0208 247.323 26.1562 245.406 23.4688C243.51 20.7812 240.812 19.4375 237.312 19.4375C233.896 19.4375 231.219 20.7812 229.281 23.4688C227.365 26.1354 226.385 29.9167 226.344 34.8125V37.4375C226.344 42.4375 227.312 46.3021 229.25 49.0312C231.208 51.7604 233.917 53.125 237.375 53.125C240.875 53.125 243.562 51.7917 245.438 49.125C247.333 46.4583 248.281 42.5625 248.281 37.4375V35.0625ZM280.781 41.4688H271.969V59H264.062V13.5H280.062C285.312 13.5 289.365 14.6771 292.219 17.0312C295.073 19.3854 296.5 22.7917 296.5 27.25C296.5 30.2917 295.76 32.8438 294.281 34.9062C292.823 36.9479 290.781 38.5208 288.156 39.625L298.375 58.5938V59H289.906L280.781 41.4688ZM271.969 35.125H280.094C282.76 35.125 284.844 34.4583 286.344 33.125C287.844 31.7708 288.594 29.9271 288.594 27.5938C288.594 25.1562 287.896 23.2708 286.5 21.9375C285.125 20.6042 283.062 19.9167 280.312 19.875H271.969V35.125ZM312.344 59H304.469V13.5H312.344V59ZM348.094 48.4062H330.469L326.781 59H318.562L335.75 13.5H342.844L360.062 59H351.812L348.094 48.4062ZM332.688 42.0312H345.875L339.281 23.1562L332.688 42.0312ZM389.031 47.2812C389.031 45.2812 388.323 43.7396 386.906 42.6562C385.51 41.5729 382.979 40.4792 379.312 39.375C375.646 38.2708 372.729 37.0417 370.562 35.6875C366.417 33.0833 364.344 29.6875 364.344 25.5C364.344 21.8333 365.833 18.8125 368.812 16.4375C371.812 14.0625 375.698 12.875 380.469 12.875C383.635 12.875 386.458 13.4583 388.938 14.625C391.417 15.7917 393.365 17.4583 394.781 19.625C396.198 21.7708 396.906 24.1562 396.906 26.7812H389.031C389.031 24.4062 388.281 22.5521 386.781 21.2188C385.302 19.8646 383.177 19.1875 380.406 19.1875C377.823 19.1875 375.812 19.7396 374.375 20.8438C372.958 21.9479 372.25 23.4896 372.25 25.4688C372.25 27.1354 373.021 28.5312 374.562 29.6562C376.104 30.7604 378.646 31.8438 382.188 32.9062C385.729 33.9479 388.573 35.1458 390.719 36.5C392.865 37.8333 394.438 39.375 395.438 41.125C396.438 42.8542 396.938 44.8854 396.938 47.2188C396.938 51.0104 395.479 54.0312 392.562 56.2812C389.667 58.5104 385.729 59.625 380.75 59.625C377.458 59.625 374.427 59.0208 371.656 57.8125C368.906 56.5833 366.76 54.8958 365.219 52.75C363.698 50.6042 362.938 48.1042 362.938 45.25H370.844C370.844 47.8333 371.698 49.8333 373.406 51.25C375.115 52.6667 377.562 53.375 380.75 53.375C383.5 53.375 385.562 52.8229 386.938 51.7188C388.333 50.5938 389.031 49.1146 389.031 47.2812Z"/>
</mask>
<g filter="url(#filter0_i_0_1)">
<path d="M55.2812 44.1875C54.8229 49.0417 53.0312 52.8333 49.9062 55.5625C46.7812 58.2708 42.625 59.625 37.4375 59.625C33.8125 59.625 30.6146 58.7708 27.8438 57.0625C25.0938 55.3333 22.9688 52.8854 21.4688 49.7188C19.9688 46.5521 19.1875 42.875 19.125 38.6875V34.4375C19.125 30.1458 19.8854 26.3646 21.4062 23.0938C22.9271 19.8229 25.1042 17.3021 27.9375 15.5312C30.7917 13.7604 34.0833 12.875 37.8125 12.875C42.8333 12.875 46.875 14.2396 49.9375 16.9688C53 19.6979 54.7812 23.5521 55.2812 28.5312H47.4062C47.0312 25.2604 46.0729 22.9062 44.5312 21.4688C43.0104 20.0104 40.7708 19.2812 37.8125 19.2812C34.375 19.2812 31.7292 20.5417 29.875 23.0625C28.0417 25.5625 27.1042 29.2396 27.0625 34.0938V38.125C27.0625 43.0417 27.9375 46.7917 29.6875 49.375C31.4583 51.9583 34.0417 53.25 37.4375 53.25C40.5417 53.25 42.875 52.5521 44.4375 51.1562C46 49.7604 46.9896 47.4375 47.4062 44.1875H55.2812ZM87.8438 48.4062H70.2188L66.5312 59H58.3125L75.5 13.5H82.5938L99.8125 59H91.5625L87.8438 48.4062ZM72.4375 42.0312H85.625L79.0312 23.1562L72.4375 42.0312ZM134.125 19.875H119.938V59H112.094V19.875H98.0312V13.5H134.125V19.875ZM166.719 38.6875H148.031V52.6875H169.875V59H140.125V13.5H169.656V19.875H148.031V32.4375H166.719V38.6875ZM211.188 53.0938C209.542 55.2396 207.26 56.8646 204.344 57.9688C201.427 59.0729 198.115 59.625 194.406 59.625C190.594 59.625 187.219 58.7604 184.281 57.0312C181.344 55.3021 179.073 52.8333 177.469 49.625C175.885 46.3958 175.062 42.6354 175 38.3438V34.7812C175 27.9062 176.646 22.5417 179.938 18.6875C183.229 14.8125 187.823 12.875 193.719 12.875C198.781 12.875 202.802 14.125 205.781 16.625C208.76 19.125 210.552 22.7292 211.156 27.4375H203.406C202.531 21.9583 199.354 19.2188 193.875 19.2188C190.333 19.2188 187.635 20.5 185.781 23.0625C183.948 25.6042 183 29.3438 182.938 34.2812V37.7812C182.938 42.6979 183.969 46.5208 186.031 49.25C188.115 51.9583 191 53.3125 194.688 53.3125C198.729 53.3125 201.604 52.3958 203.312 50.5625V41.6562H193.938V35.6562H211.188V53.0938ZM256.188 37.4375C256.188 41.8958 255.417 45.8125 253.875 49.1875C252.333 52.5417 250.125 55.125 247.25 56.9375C244.396 58.7292 241.104 59.625 237.375 59.625C233.688 59.625 230.396 58.7292 227.5 56.9375C224.625 55.125 222.396 52.5521 220.812 49.2188C219.25 45.8854 218.458 42.0417 218.438 37.6875V35.125C218.438 30.6875 219.219 26.7708 220.781 23.375C222.365 19.9792 224.583 17.3854 227.438 15.5938C230.312 13.7812 233.604 12.875 237.312 12.875C241.021 12.875 244.302 13.7708 247.156 15.5625C250.031 17.3333 252.25 19.8958 253.812 23.25C255.375 26.5833 256.167 30.4688 256.188 34.9062V37.4375ZM248.281 35.0625C248.281 30.0208 247.323 26.1562 245.406 23.4688C243.51 20.7812 240.812 19.4375 237.312 19.4375C233.896 19.4375 231.219 20.7812 229.281 23.4688C227.365 26.1354 226.385 29.9167 226.344 34.8125V37.4375C226.344 42.4375 227.312 46.3021 229.25 49.0312C231.208 51.7604 233.917 53.125 237.375 53.125C240.875 53.125 243.562 51.7917 245.438 49.125C247.333 46.4583 248.281 42.5625 248.281 37.4375V35.0625ZM280.781 41.4688H271.969V59H264.062V13.5H280.062C285.312 13.5 289.365 14.6771 292.219 17.0312C295.073 19.3854 296.5 22.7917 296.5 27.25C296.5 30.2917 295.76 32.8438 294.281 34.9062C292.823 36.9479 290.781 38.5208 288.156 39.625L298.375 58.5938V59H289.906L280.781 41.4688ZM271.969 35.125H280.094C282.76 35.125 284.844 34.4583 286.344 33.125C287.844 31.7708 288.594 29.9271 288.594 27.5938C288.594 25.1562 287.896 23.2708 286.5 21.9375C285.125 20.6042 283.062 19.9167 280.312 19.875H271.969V35.125ZM312.344 59H304.469V13.5H312.344V59ZM348.094 48.4062H330.469L326.781 59H318.562L335.75 13.5H342.844L360.062 59H351.812L348.094 48.4062ZM332.688 42.0312H345.875L339.281 23.1562L332.688 42.0312ZM389.031 47.2812C389.031 45.2812 388.323 43.7396 386.906 42.6562C385.51 41.5729 382.979 40.4792 379.312 39.375C375.646 38.2708 372.729 37.0417 370.562 35.6875C366.417 33.0833 364.344 29.6875 364.344 25.5C364.344 21.8333 365.833 18.8125 368.812 16.4375C371.812 14.0625 375.698 12.875 380.469 12.875C383.635 12.875 386.458 13.4583 388.938 14.625C391.417 15.7917 393.365 17.4583 394.781 19.625C396.198 21.7708 396.906 24.1562 396.906 26.7812H389.031C389.031 24.4062 388.281 22.5521 386.781 21.2188C385.302 19.8646 383.177 19.1875 380.406 19.1875C377.823 19.1875 375.812 19.7396 374.375 20.8438C372.958 21.9479 372.25 23.4896 372.25 25.4688C372.25 27.1354 373.021 28.5312 374.562 29.6562C376.104 30.7604 378.646 31.8438 382.188 32.9062C385.729 33.9479 388.573 35.1458 390.719 36.5C392.865 37.8333 394.438 39.375 395.438 41.125C396.438 42.8542 396.938 44.8854 396.938 47.2188C396.938 51.0104 395.479 54.0312 392.562 56.2812C389.667 58.5104 385.729 59.625 380.75 59.625C377.458 59.625 374.427 59.0208 371.656 57.8125C368.906 56.5833 366.76 54.8958 365.219 52.75C363.698 50.6042 362.938 48.1042 362.938 45.25H370.844C370.844 47.8333 371.698 49.8333 373.406 51.25C375.115 52.6667 377.562 53.375 380.75 53.375C383.5 53.375 385.562 52.8229 386.938 51.7188C388.333 50.5938 389.031 49.1146 389.031 47.2812Z" fill="white"/>
</g>
<path d="M55.2812 44.1875L58.268 44.4695L58.5779 41.1875H55.2812V44.1875ZM49.9062 55.5625L51.8711 57.8296L51.8796 57.8221L49.9062 55.5625ZM27.8438 57.0625L26.2468 59.6022L26.258 59.6092L26.2693 59.6162L27.8438 57.0625ZM19.125 38.6875H16.125V38.7099L16.1253 38.7323L19.125 38.6875ZM27.9375 15.5312L26.3559 12.982L26.3475 12.9873L27.9375 15.5312ZM55.2812 28.5312V31.5312H58.5976L58.2662 28.2315L55.2812 28.5312ZM47.4062 28.5312L44.4258 28.873L44.7305 31.5312H47.4062V28.5312ZM44.5312 21.4688L42.4549 23.6341L42.47 23.6486L42.4854 23.6629L44.5312 21.4688ZM29.875 23.0625L27.4583 21.2849L27.4558 21.2884L29.875 23.0625ZM27.0625 34.0938L24.0626 34.068L24.0625 34.0809V34.0938H27.0625ZM29.6875 49.375L27.2037 51.0575L27.2084 51.0644L27.213 51.0712L29.6875 49.375ZM47.4062 44.1875V41.1875H44.7663L44.4306 43.806L47.4062 44.1875ZM52.2945 43.9055C51.8949 48.1382 50.3795 51.1662 47.9329 53.3029L51.8796 57.8221C55.683 54.5005 57.751 49.9452 58.268 44.4695L52.2945 43.9055ZM47.9415 53.2954C45.49 55.4201 42.0929 56.625 37.4375 56.625V62.625C43.1571 62.625 48.0725 61.1216 51.871 57.8296L47.9415 53.2954ZM37.4375 56.625C34.3035 56.625 31.6632 55.893 29.4182 54.5088L26.2693 59.6162C29.5659 61.6487 33.3215 62.625 37.4375 62.625V56.625ZM29.4407 54.5228C27.2121 53.1216 25.4556 51.1275 24.18 48.4345L18.7575 51.003C20.4819 54.6433 22.9754 57.5451 26.2468 59.6022L29.4407 54.5228ZM24.18 48.4345C22.896 45.7238 22.182 42.4837 22.1247 38.6427L16.1253 38.7323C16.193 43.2663 17.0415 47.3804 18.7575 51.003L24.18 48.4345ZM22.125 38.6875V34.4375H16.125V38.6875H22.125ZM22.125 34.4375C22.125 30.5009 22.8216 27.1651 24.1266 24.3586L18.6859 21.8289C16.9492 25.564 16.125 29.7908 16.125 34.4375H22.125ZM24.1266 24.3586C25.4228 21.5708 27.2263 19.5135 29.5275 18.0752L26.3475 12.9873C22.9821 15.0907 20.4314 18.075 18.6859 21.8289L24.1266 24.3586ZM29.5191 18.0805C31.8471 16.6361 34.5787 15.875 37.8125 15.875V9.875C33.588 9.875 29.7362 10.8848 26.3559 12.982L29.5191 18.0805ZM37.8125 15.875C42.2696 15.875 45.5449 17.0727 47.9416 19.2085L51.9334 14.729C48.2051 11.4065 43.397 9.875 37.8125 9.875V15.875ZM47.9416 19.2085C50.3256 21.333 51.854 24.4267 52.2963 28.831L58.2662 28.2315C57.7085 22.6775 55.6744 18.0628 51.9334 14.729L47.9416 19.2085ZM55.2812 25.5312H47.4062V31.5312H55.2812V25.5312ZM50.3867 28.1895C49.9738 24.5883 48.8645 21.4074 46.5771 19.2746L42.4854 23.6629C43.2814 24.4051 44.0887 25.9325 44.4258 28.873L50.3867 28.1895ZM46.6076 19.3034C44.3361 17.1252 41.2297 16.2812 37.8125 16.2812V22.2812C40.3119 22.2812 41.6847 22.8956 42.4549 23.6341L46.6076 19.3034ZM37.8125 16.2812C33.5298 16.2812 29.9394 17.9118 27.4583 21.2849L32.2917 24.8401C33.519 23.1715 35.2202 22.2812 37.8125 22.2812V16.2812ZM27.4558 21.2884C25.0934 24.5099 24.1068 28.9157 24.0626 34.068L30.0624 34.1195C30.1015 29.5635 30.99 26.6151 32.2942 24.8366L27.4558 21.2884ZM24.0625 34.0938V38.125H30.0625V34.0938H24.0625ZM24.0625 38.125C24.0625 43.3233 24.9747 47.767 27.2037 51.0575L32.1713 47.6925C30.9003 45.8163 30.0625 42.76 30.0625 38.125H24.0625ZM27.213 51.0712C29.5966 54.5484 33.1505 56.25 37.4375 56.25V50.25C34.9328 50.25 33.3201 49.3683 32.162 47.6788L27.213 51.0712ZM37.4375 56.25C40.9321 56.25 44.1108 55.4708 46.4361 53.3935L42.4389 48.919C41.6392 49.6334 40.1512 50.25 37.4375 50.25V56.25ZM46.4361 53.3935C48.7688 51.3097 49.9227 48.1507 50.3819 44.569L44.4306 43.806C44.0565 46.7243 43.2312 48.2111 42.4389 48.919L46.4361 53.3935ZM47.4062 47.1875H55.2812V41.1875H47.4062V47.1875ZM87.8438 48.4062L90.6744 47.4126L89.9701 45.4062H87.8438V48.4062ZM70.2188 48.4062V45.4062H68.0864L67.3855 47.42L70.2188 48.4062ZM66.5312 59V62H68.6636L69.3645 59.9862L66.5312 59ZM58.3125 59L55.5061 57.9399L53.9724 62H58.3125V59ZM75.5 13.5V10.5H73.4263L72.6936 12.4399L75.5 13.5ZM82.5938 13.5L85.3996 12.4382L84.6661 10.5H82.5938V13.5ZM99.8125 59V62H104.155L102.618 57.9382L99.8125 59ZM91.5625 59L88.7318 59.9937L89.4361 62H91.5625V59ZM72.4375 42.0312L69.6053 41.0419L68.2117 45.0312H72.4375V42.0312ZM85.625 42.0312V45.0312H89.8508L88.4572 41.0419L85.625 42.0312ZM79.0312 23.1562L81.8634 22.1669L79.0312 14.0596L76.1991 22.1669L79.0312 23.1562ZM87.8438 45.4062H70.2188V51.4062H87.8438V45.4062ZM67.3855 47.42L63.698 58.0138L69.3645 59.9862L73.052 49.3925L67.3855 47.42ZM66.5312 56H58.3125V62H66.5312V56ZM61.1189 60.0601L78.3064 14.5601L72.6936 12.4399L55.5061 57.9399L61.1189 60.0601ZM75.5 16.5H82.5938V10.5H75.5V16.5ZM79.7879 14.5618L97.0067 60.0618L102.618 57.9382L85.3996 12.4382L79.7879 14.5618ZM99.8125 56H91.5625V62H99.8125V56ZM94.3932 58.0063L90.6744 47.4126L85.0131 49.3999L88.7318 59.9937L94.3932 58.0063ZM72.4375 45.0312H85.625V39.0312H72.4375V45.0312ZM88.4572 41.0419L81.8634 22.1669L76.1991 24.1456L82.7928 43.0206L88.4572 41.0419ZM76.1991 22.1669L69.6053 41.0419L75.2697 43.0206L81.8634 24.1456L76.1991 22.1669ZM134.125 19.875V22.875H137.125V19.875H134.125ZM119.938 19.875V16.875H116.938V19.875H119.938ZM119.938 59V62H122.938V59H119.938ZM112.094 59H109.094V62H112.094V59ZM112.094 19.875H115.094V16.875H112.094V19.875ZM98.0312 19.875H95.0312V22.875H98.0312V19.875ZM98.0312 13.5V10.5H95.0312V13.5H98.0312ZM134.125 13.5H137.125V10.5H134.125V13.5ZM134.125 16.875H119.938V22.875H134.125V16.875ZM116.938 19.875V59H122.938V19.875H116.938ZM119.938 56H112.094V62H119.938V56ZM115.094 59V19.875H109.094V59H115.094ZM112.094 16.875H98.0312V22.875H112.094V16.875ZM101.031 19.875V13.5H95.0312V19.875H101.031ZM98.0312 16.5H134.125V10.5H98.0312V16.5ZM131.125 13.5V19.875H137.125V13.5H131.125ZM166.719 38.6875V41.6875H169.719V38.6875H166.719ZM148.031 38.6875V35.6875H145.031V38.6875H148.031ZM148.031 52.6875H145.031V55.6875H148.031V52.6875ZM169.875 52.6875H172.875V49.6875H169.875V52.6875ZM169.875 59V62H172.875V59H169.875ZM140.125 59H137.125V62H140.125V59ZM140.125 13.5V10.5H137.125V13.5H140.125ZM169.656 13.5H172.656V10.5H169.656V13.5ZM169.656 19.875V22.875H172.656V19.875H169.656ZM148.031 19.875V16.875H145.031V19.875H148.031ZM148.031 32.4375H145.031V35.4375H148.031V32.4375ZM166.719 32.4375H169.719V29.4375H166.719V32.4375ZM166.719 35.6875H148.031V41.6875H166.719V35.6875ZM145.031 38.6875V52.6875H151.031V38.6875H145.031ZM148.031 55.6875H169.875V49.6875H148.031V55.6875ZM166.875 52.6875V59H172.875V52.6875H166.875ZM169.875 56H140.125V62H169.875V56ZM143.125 59V13.5H137.125V59H143.125ZM140.125 16.5H169.656V10.5H140.125V16.5ZM166.656 13.5V19.875H172.656V13.5H166.656ZM169.656 16.875H148.031V22.875H169.656V16.875ZM145.031 19.875V32.4375H151.031V19.875H145.031ZM148.031 35.4375H166.719V29.4375H148.031V35.4375ZM163.719 32.4375V38.6875H169.719V32.4375H163.719ZM211.188 53.0938L213.568 54.9195L214.188 54.1118V53.0938H211.188ZM177.469 49.625L174.775 50.9457L174.78 50.9562L174.785 50.9666L177.469 49.625ZM175 38.3438H172V38.3656L172 38.3874L175 38.3438ZM179.938 18.6875L182.219 20.6358L182.224 20.6297L179.938 18.6875ZM205.781 16.625L207.71 14.3269L205.781 16.625ZM211.156 27.4375V30.4375H214.566L214.132 27.0557L211.156 27.4375ZM203.406 27.4375L200.444 27.9106L200.847 30.4375H203.406V27.4375ZM185.781 23.0625L183.351 21.3039L183.348 21.3075L185.781 23.0625ZM182.938 34.2812L179.938 34.2433L179.938 34.2623V34.2812H182.938ZM186.031 49.25L183.638 51.0588L183.646 51.069L183.653 51.0791L186.031 49.25ZM203.312 50.5625L205.507 52.6077L206.312 51.7436V50.5625H203.312ZM203.312 41.6562H206.312V38.6562H203.312V41.6562ZM193.938 41.6562H190.938V44.6562H193.938V41.6562ZM193.938 35.6562V32.6562H190.938V35.6562H193.938ZM211.188 35.6562H214.188V32.6562H211.188V35.6562ZM208.807 51.268C207.55 52.9064 205.758 54.2257 203.282 55.1631L205.406 60.7744C208.763 59.5035 211.533 57.5727 213.568 54.9195L208.807 51.268ZM203.282 55.1631C200.762 56.117 197.819 56.625 194.406 56.625V62.625C198.41 62.625 202.092 62.0288 205.406 60.7744L203.282 55.1631ZM194.406 56.625C191.064 56.625 188.226 55.8724 185.803 54.4459L182.759 59.6166C186.211 61.6484 190.123 62.625 194.406 62.625V56.625ZM185.803 54.4459C183.391 53.0263 181.511 51.0022 180.152 48.2834L174.785 50.9666C176.634 54.6645 179.296 57.5779 182.759 59.6166L185.803 54.4459ZM180.162 48.3043C178.808 45.5425 178.057 42.2333 178 38.3001L172 38.3874C172.068 43.0375 172.963 47.2491 174.775 50.9457L180.162 48.3043ZM178 38.3438V34.7812H172V38.3438H178ZM178 34.7812C178 28.3651 179.534 23.7798 182.219 20.6358L177.656 16.7392C173.758 21.3035 172 27.4474 172 34.7812H178ZM182.224 20.6297C184.852 17.5363 188.547 15.875 193.719 15.875V9.875C187.099 9.875 181.607 12.0887 177.651 16.7453L182.224 20.6297ZM193.719 15.875C198.292 15.875 201.559 16.9983 203.853 18.9231L207.71 14.3269C204.045 11.2517 199.27 9.875 193.719 9.875V15.875ZM203.853 18.9231C206.133 20.8368 207.65 23.6852 208.181 27.8193L214.132 27.0557C213.454 21.7731 211.387 17.4132 207.71 14.3269L203.853 18.9231ZM211.156 24.4375H203.406V30.4375H211.156V24.4375ZM206.369 26.9644C205.856 23.7536 204.603 20.9649 202.326 19.0015C200.044 17.0338 197.11 16.2188 193.875 16.2188V22.2188C196.12 22.2188 197.513 22.7735 198.408 23.5454C199.308 24.3215 200.082 25.6422 200.444 27.9106L206.369 26.9644ZM193.875 16.2188C189.504 16.2188 185.843 17.8597 183.351 21.3039L188.212 24.8211C189.428 23.1403 191.163 22.2188 193.875 22.2188V16.2188ZM183.348 21.3075C181 24.5626 180.004 29.0173 179.938 34.2433L185.937 34.3192C185.996 29.6702 186.896 26.6458 188.214 24.8175L183.348 21.3075ZM179.938 34.2812V37.7812H185.938V34.2812H179.938ZM179.938 37.7812C179.938 43.0747 181.043 47.6247 183.638 51.0588L188.425 47.4412C186.895 45.417 185.938 42.3211 185.938 37.7812H179.938ZM183.653 51.0791C186.355 54.5907 190.154 56.3125 194.688 56.3125V50.3125C191.846 50.3125 189.875 49.3259 188.409 47.4209L183.653 51.0791ZM194.688 56.3125C199.067 56.3125 202.965 55.3361 205.507 52.6077L201.118 48.5173C200.243 49.4556 198.391 50.3125 194.688 50.3125V56.3125ZM206.312 50.5625V41.6562H200.312V50.5625H206.312ZM203.312 38.6562H193.938V44.6562H203.312V38.6562ZM196.938 41.6562V35.6562H190.938V41.6562H196.938ZM193.938 38.6562H211.188V32.6562H193.938V38.6562ZM208.188 35.6562V53.0938H214.188V35.6562H208.188ZM253.875 49.1875L256.601 50.4404L256.604 50.434L253.875 49.1875ZM247.25 56.9375L248.845 59.4784L248.85 59.4753L247.25 56.9375ZM227.5 56.9375L225.9 59.4753L225.911 59.482L225.922 59.4887L227.5 56.9375ZM220.812 49.2188L218.096 50.4921L218.099 50.499L218.103 50.5059L220.812 49.2188ZM218.438 37.6875H215.438V37.6947L215.438 37.7019L218.438 37.6875ZM220.781 23.375L218.062 22.1073L218.059 22.1141L218.056 22.121L220.781 23.375ZM227.438 15.5938L229.033 18.1346L229.037 18.1315L227.438 15.5938ZM247.156 15.5625L245.561 18.1034L245.572 18.1101L245.583 18.1168L247.156 15.5625ZM253.812 23.25L251.093 24.5168L251.096 24.5233L253.812 23.25ZM256.188 34.9062H259.188L259.187 34.8922L256.188 34.9062ZM245.406 23.4688L242.955 25.1981L242.959 25.2044L242.964 25.2107L245.406 23.4688ZM229.281 23.4688L226.848 21.7143L226.845 21.7178L229.281 23.4688ZM226.344 34.8125L223.344 34.787L223.344 34.7997V34.8125H226.344ZM229.25 49.0312L226.804 50.7679L226.808 50.7741L226.813 50.7802L229.25 49.0312ZM245.438 49.125L242.992 47.3867L242.988 47.3931L242.983 47.3995L245.438 49.125ZM253.188 37.4375C253.188 41.551 252.477 45.028 251.146 47.941L256.604 50.434C258.357 46.597 259.188 42.2407 259.188 37.4375H253.188ZM251.149 47.9346C249.829 50.8079 247.991 52.9241 245.65 54.3997L248.85 59.4753C252.259 57.3259 254.838 54.2754 256.601 50.4404L251.149 47.9346ZM245.655 54.3966C243.329 55.8569 240.602 56.625 237.375 56.625V62.625C241.606 62.625 245.463 61.6014 248.845 59.4784L245.655 54.3966ZM237.375 56.625C234.197 56.625 231.461 55.8603 229.078 54.3863L225.922 59.4887C229.331 61.598 233.178 62.625 237.375 62.625V56.625ZM229.1 54.3997C226.747 52.9164 224.883 50.7971 223.522 47.9316L218.103 50.5059C219.908 54.3071 222.503 57.3336 225.9 59.4753L229.1 54.3997ZM223.529 47.9454C222.182 45.0717 221.457 41.6707 221.437 37.6731L215.438 37.7019C215.46 42.4126 216.318 46.6991 218.096 50.4921L223.529 47.9454ZM221.438 37.6875V35.125H215.438V37.6875H221.438ZM221.438 35.125C221.438 31.0404 222.156 27.5648 223.507 24.629L218.056 22.121C216.282 25.9768 215.438 30.3346 215.438 35.125H221.438ZM223.5 24.6427C224.868 21.7101 226.722 19.5853 229.033 18.1346L225.842 13.0529C222.445 15.1855 219.862 18.2483 218.062 22.1073L223.5 24.6427ZM229.037 18.1315C231.39 16.6483 234.117 15.875 237.312 15.875V9.875C233.091 9.875 229.235 10.9142 225.838 13.056L229.037 18.1315ZM237.312 15.875C240.515 15.875 243.232 16.6414 245.561 18.1034L248.751 13.0216C245.372 10.9002 241.526 9.875 237.312 9.875V15.875ZM245.583 18.1168C247.911 19.5505 249.754 21.6416 251.093 24.5168L256.532 21.9832C254.746 18.1501 252.152 15.1162 248.73 13.0082L245.583 18.1168ZM251.096 24.5233C252.44 27.3899 253.168 30.8302 253.188 34.9203L259.187 34.8922C259.165 30.1073 258.31 25.7768 256.529 21.9767L251.096 24.5233ZM253.188 34.9062V37.4375H259.188V34.9062H253.188ZM251.281 35.0625C251.281 29.7053 250.274 25.1269 247.849 21.7268L242.964 25.2107C244.372 27.1856 245.281 30.3363 245.281 35.0625H251.281ZM247.858 21.7394C245.359 18.1967 241.714 16.4375 237.312 16.4375V22.4375C239.911 22.4375 241.662 23.3658 242.955 25.1981L247.858 21.7394ZM237.312 16.4375C232.967 16.4375 229.37 18.2162 226.848 21.7143L231.715 25.2232C233.068 23.3463 234.824 22.4375 237.312 22.4375V16.4375ZM226.845 21.7178C224.429 25.0794 223.388 29.5593 223.344 34.787L229.344 34.838C229.382 30.274 230.3 27.1914 231.717 25.2197L226.845 21.7178ZM223.344 34.8125V37.4375H229.344V34.8125H223.344ZM223.344 37.4375C223.344 42.769 224.368 47.3369 226.804 50.7679L231.696 47.2946C230.257 45.2673 229.344 42.106 229.344 37.4375H223.344ZM226.813 50.7802C229.354 54.3218 232.984 56.125 237.375 56.125V50.125C234.849 50.125 233.063 49.199 231.687 47.2823L226.813 50.7802ZM237.375 56.125C241.767 56.125 245.408 54.383 247.892 50.8505L242.983 47.3995C241.717 49.2003 239.983 50.125 237.375 50.125V56.125ZM247.883 50.8633C250.292 47.4749 251.281 42.8579 251.281 37.4375H245.281C245.281 42.2671 244.375 45.4418 242.992 47.3867L247.883 50.8633ZM251.281 37.4375V35.0625H245.281V37.4375H251.281ZM280.781 41.4688L283.442 40.0836L282.602 38.4688H280.781V41.4688ZM271.969 41.4688V38.4688H268.969V41.4688H271.969ZM271.969 59V62H274.969V59H271.969ZM264.062 59H261.062V62H264.062V59ZM264.062 13.5V10.5H261.062V13.5H264.062ZM292.219 17.0312L294.128 14.7169L292.219 17.0312ZM294.281 34.9062L291.843 33.1579L291.84 33.1625L294.281 34.9062ZM288.156 39.625L286.993 36.8597L283.949 38.1402L285.515 41.0478L288.156 39.625ZM298.375 58.5938H301.375V57.8371L301.016 57.1709L298.375 58.5938ZM298.375 59V62H301.375V59H298.375ZM289.906 59L287.245 60.3851L288.086 62H289.906V59ZM271.969 35.125H268.969V38.125H271.969V35.125ZM286.344 33.125L288.337 35.3672L288.345 35.3596L288.354 35.3518L286.344 33.125ZM286.5 21.9375L284.412 24.0912L284.42 24.099L284.428 24.1068L286.5 21.9375ZM280.312 19.875L280.358 16.8753L280.335 16.875H280.312V19.875ZM271.969 19.875V16.875H268.969V19.875H271.969ZM280.781 38.4688H271.969V44.4688H280.781V38.4688ZM268.969 41.4688V59H274.969V41.4688H268.969ZM271.969 56H264.062V62H271.969V56ZM267.062 59V13.5H261.062V59H267.062ZM264.062 16.5H280.062V10.5H264.062V16.5ZM280.062 16.5C284.903 16.5 288.179 17.5881 290.31 19.3456L294.128 14.7169C290.55 11.7661 285.722 10.5 280.062 10.5V16.5ZM290.31 19.3456C292.331 21.0123 293.5 23.4846 293.5 27.25H299.5C299.5 22.0987 297.815 17.7585 294.128 14.7169L290.31 19.3456ZM293.5 27.25C293.5 29.7918 292.889 31.6996 291.843 33.1579L296.719 36.6546C298.632 33.9879 299.5 30.7915 299.5 27.25H293.5ZM291.84 33.1625C290.747 34.6931 289.176 35.9413 286.993 36.8597L289.319 42.3903C292.386 41.1004 294.899 39.2027 296.722 36.65L291.84 33.1625ZM285.515 41.0478L295.734 60.0166L301.016 57.1709L290.797 38.2022L285.515 41.0478ZM295.375 58.5938V59H301.375V58.5938H295.375ZM298.375 56H289.906V62H298.375V56ZM292.567 57.6149L283.442 40.0836L278.12 42.8539L287.245 60.3851L292.567 57.6149ZM271.969 38.125H280.094V32.125H271.969V38.125ZM280.094 38.125C283.25 38.125 286.128 37.3303 288.337 35.3672L284.351 30.8828C283.559 31.5863 282.271 32.125 280.094 32.125V38.125ZM288.354 35.3518C290.584 33.3387 291.594 30.6314 291.594 27.5938H285.594C285.594 29.2228 285.103 30.203 284.333 30.8982L288.354 35.3518ZM291.594 27.5938C291.594 24.5651 290.708 21.8079 288.572 19.7682L284.428 24.1068C285.084 24.7337 285.594 25.7474 285.594 27.5938H291.594ZM288.588 19.7838C286.466 17.7256 283.54 16.9236 280.358 16.8753L280.267 22.8747C282.585 22.9098 283.784 23.4827 284.412 24.0912L288.588 19.7838ZM280.312 16.875H271.969V22.875H280.312V16.875ZM268.969 19.875V35.125H274.969V19.875H268.969ZM312.344 59V62H315.344V59H312.344ZM304.469 59H301.469V62H304.469V59ZM304.469 13.5V10.5H301.469V13.5H304.469ZM312.344 13.5H315.344V10.5H312.344V13.5ZM312.344 56H304.469V62H312.344V56ZM307.469 59V13.5H301.469V59H307.469ZM304.469 16.5H312.344V10.5H304.469V16.5ZM309.344 13.5V59H315.344V13.5H309.344ZM348.094 48.4062L350.924 47.4126L350.22 45.4062H348.094V48.4062ZM330.469 48.4062V45.4062H328.336L327.635 47.42L330.469 48.4062ZM326.781 59V62H328.914L329.615 59.9862L326.781 59ZM318.562 59L315.756 57.9399L314.222 62H318.562V59ZM335.75 13.5V10.5H333.676L332.944 12.4399L335.75 13.5ZM342.844 13.5L345.65 12.4382L344.916 10.5H342.844V13.5ZM360.062 59V62H364.405L362.868 57.9382L360.062 59ZM351.812 59L348.982 59.9937L349.686 62H351.812V59ZM332.688 42.0312L329.855 41.0419L328.462 45.0312H332.688V42.0312ZM345.875 42.0312V45.0312H350.101L348.707 41.0419L345.875 42.0312ZM339.281 23.1562L342.113 22.1669L339.281 14.0596L336.449 22.1669L339.281 23.1562ZM348.094 45.4062H330.469V51.4062H348.094V45.4062ZM327.635 47.42L323.948 58.0138L329.615 59.9862L333.302 49.3925L327.635 47.42ZM326.781 56H318.562V62H326.781V56ZM321.369 60.0601L338.556 14.5601L332.944 12.4399L315.756 57.9399L321.369 60.0601ZM335.75 16.5H342.844V10.5H335.75V16.5ZM340.038 14.5618L357.257 60.0618L362.868 57.9382L345.65 12.4382L340.038 14.5618ZM360.062 56H351.812V62H360.062V56ZM354.643 58.0063L350.924 47.4126L345.263 49.3999L348.982 59.9937L354.643 58.0063ZM332.688 45.0312H345.875V39.0312H332.688V45.0312ZM348.707 41.0419L342.113 22.1669L336.449 24.1456L343.043 43.0206L348.707 41.0419ZM336.449 22.1669L329.855 41.0419L335.52 43.0206L342.113 24.1456L336.449 22.1669ZM386.906 42.6562L385.067 45.0262L385.075 45.0328L385.084 45.0393L386.906 42.6562ZM370.562 35.6875L368.967 38.2279L368.973 38.2315L370.562 35.6875ZM368.812 16.4375L366.95 14.0853L366.942 14.0917L368.812 16.4375ZM394.781 19.625L392.27 21.2668L392.278 21.2779L394.781 19.625ZM396.906 26.7812V29.7812H399.906V26.7812H396.906ZM389.031 26.7812H386.031V29.7812H389.031V26.7812ZM386.781 21.2188L384.755 23.4315L384.772 23.4464L384.788 23.461L386.781 21.2188ZM374.375 20.8438L372.548 18.4646L372.539 18.4711L372.531 18.4776L374.375 20.8438ZM374.562 29.6562L372.794 32.0796L372.805 32.0875L372.816 32.0952L374.562 29.6562ZM382.188 32.9062L381.325 35.7797L381.333 35.7821L381.341 35.7843L382.188 32.9062ZM390.719 36.5L389.118 39.0371L389.127 39.0426L389.135 39.0482L390.719 36.5ZM395.438 41.125L392.833 42.6134L392.837 42.6202L392.841 42.6269L395.438 41.125ZM392.562 56.2812L394.392 58.6585L394.395 58.6566L392.562 56.2812ZM371.656 57.8125L370.432 60.5514L370.445 60.5569L370.457 60.5624L371.656 57.8125ZM365.219 52.75L362.771 54.4847L362.777 54.4926L362.782 54.5004L365.219 52.75ZM362.938 45.25V42.25H359.938V45.25H362.938ZM370.844 45.25H373.844V42.25H370.844V45.25ZM386.938 51.7188L388.816 54.0579L388.82 54.0545L386.938 51.7188ZM392.031 47.2812C392.031 44.4766 390.985 41.9986 388.729 40.2732L385.084 45.0393C385.661 45.4806 386.031 46.0859 386.031 47.2812H392.031ZM388.746 40.2863C386.879 38.8379 383.882 37.6179 380.178 36.5024L378.447 42.2476C382.076 43.3404 384.141 44.3079 385.067 45.0262L388.746 40.2863ZM380.178 36.5024C376.653 35.4409 374.011 34.305 372.152 33.1435L368.973 38.2315C371.447 39.7783 374.639 41.1007 378.447 42.2476L380.178 36.5024ZM372.158 33.1471C368.713 30.9831 367.344 28.4664 367.344 25.5H361.344C361.344 30.9086 364.12 35.1836 368.967 38.2279L372.158 33.1471ZM367.344 25.5C367.344 22.7871 368.385 20.6149 370.683 18.7833L366.942 14.0917C363.282 17.0101 361.344 20.8796 361.344 25.5H367.344ZM370.675 18.7896C373.025 16.9291 376.203 15.875 380.469 15.875V9.875C375.193 9.875 370.6 11.1959 366.95 14.0854L370.675 18.7896ZM380.469 15.875C383.262 15.875 385.638 16.388 387.66 17.3395L390.215 11.9105C387.278 10.5287 384.008 9.875 380.469 9.875V15.875ZM387.66 17.3395C389.667 18.2841 391.176 19.5925 392.27 21.2667L397.292 17.9833C395.554 15.3242 393.166 13.2993 390.215 11.9105L387.66 17.3395ZM392.278 21.2779C393.363 22.9225 393.906 24.7309 393.906 26.7812H399.906C399.906 23.5816 399.032 20.6192 397.285 17.9721L392.278 21.2779ZM396.906 23.7812H389.031V29.7812H396.906V23.7812ZM392.031 26.7812C392.031 23.7216 391.033 20.9844 388.774 18.9765L384.788 23.461C385.529 24.1198 386.031 25.0909 386.031 26.7812H392.031ZM388.807 19.006C386.594 16.9797 383.639 16.1875 380.406 16.1875V22.1875C382.715 22.1875 384.01 22.7494 384.755 23.4315L388.807 19.006ZM380.406 16.1875C377.435 16.1875 374.691 16.8182 372.548 18.4646L376.202 23.2229C376.934 22.6609 378.211 22.1875 380.406 22.1875V16.1875ZM372.531 18.4776C370.304 20.2134 369.25 22.6728 369.25 25.4688H375.25C375.25 24.3063 375.613 23.6824 376.219 23.2099L372.531 18.4776ZM369.25 25.4688C369.25 28.2425 370.607 30.4838 372.794 32.0796L376.331 27.2329C375.434 26.5787 375.25 26.0284 375.25 25.4688H369.25ZM372.816 32.0952C374.774 33.4981 377.708 34.6946 381.325 35.7797L383.05 30.0328C379.583 28.9929 377.434 28.0227 376.309 27.2173L372.816 32.0952ZM381.341 35.7843C384.726 36.7799 387.286 37.8814 389.118 39.0371L392.32 33.9629C389.859 32.4103 386.732 31.1159 383.034 30.0282L381.341 35.7843ZM389.135 39.0482C390.963 40.184 392.135 41.3922 392.833 42.6134L398.042 39.6366C396.74 37.3578 394.766 35.4827 392.302 33.9518L389.135 39.0482ZM392.841 42.6269C393.535 43.8278 393.938 45.3233 393.938 47.2188H399.938C399.938 44.4476 399.34 41.8805 398.034 39.6231L392.841 42.6269ZM393.938 47.2188C393.938 50.1123 392.886 52.2431 390.73 53.9059L394.395 58.6566C398.073 55.8194 399.938 51.9085 399.938 47.2188H393.938ZM390.733 53.904C388.522 55.6053 385.304 56.625 380.75 56.625V62.625C386.154 62.625 390.811 61.4156 394.392 58.6585L390.733 53.904ZM380.75 56.625C377.834 56.625 375.215 56.0918 372.855 55.0626L370.457 60.5624C373.639 61.9499 377.083 62.625 380.75 62.625V56.625ZM372.88 55.0736C370.546 54.0301 368.846 52.657 367.655 50.9996L362.782 54.5004C364.675 57.1346 367.267 59.1365 370.432 60.5514L372.88 55.0736ZM367.666 51.0153C366.536 49.4202 365.938 47.5384 365.938 45.25H359.938C359.938 48.6699 360.86 51.7882 362.771 54.4847L367.666 51.0153ZM362.938 48.25H370.844V42.25H362.938V48.25ZM367.844 45.25C367.844 48.563 368.979 51.4761 371.491 53.5593L375.321 48.9407C374.417 48.1906 373.844 47.1037 373.844 45.25H367.844ZM371.491 53.5593C373.93 55.5817 377.162 56.375 380.75 56.375V50.375C377.963 50.375 376.299 49.7517 375.321 48.9407L371.491 53.5593ZM380.75 56.375C383.823 56.375 386.682 55.7711 388.816 54.0579L385.059 49.3796C384.443 49.8747 383.177 50.375 380.75 50.375V56.375ZM388.82 54.0545C390.941 52.3452 392.031 49.9982 392.031 47.2812H386.031C386.031 48.2309 385.726 48.8423 385.055 49.383L388.82 54.0545Z" fill="#9758A6" mask="url(#path-1-outside-1_0_1)"/>
</g>
<defs>
<filter id="filter0_i_0_1" x="19.125" y="12.875" width="377.812" height="50.75" filterUnits="userSpaceOnUse" color-interpolation-filters="sRGB">
<feFlood flood-opacity="0" result="BackgroundImageFix"/>
<feBlend mode="normal" in="SourceGraphic" in2="BackgroundImageFix" result="shape"/>
<feColorMatrix in="SourceAlpha" type="matrix" values="0 0 0 0 0 0 0 0 0 0 0 0 0 0 0 0 0 0 127 0" result="hardAlpha"/>
<feOffset dy="4"/>
<feGaussianBlur stdDeviation="2"/>
<feComposite in2="hardAlpha" operator="arithmetic" k2="-1" k3="1"/>
<feColorMatrix type="matrix" values="0 0 0 0 0 0 0 0 0 0 0 0 0 0 0 0 0 0 0.25 0"/>
<feBlend mode="normal" in2="shape" result="effect1_innerShadow_0_1"/>
</filter>
<clipPath id="clip0_0_1">
<rect width="1440" height="1890" fill="white" transform="translate(-514 -676)"/>
</clipPath>
</defs>
</svg>
