<svg width="273" height="65" viewBox="0 0 273 65" fill="none" xmlns="http://www.w3.org/2000/svg">
<rect width="273" height="65" fill="#E5E5E5"/>
<g clip-path="url(#clip0_0_1)">
<rect width="1440" height="1890" transform="translate(-583 -1244)" fill="#EFEFEF"/>
<rect x="-583" y="-35" width="1440" height="679" fill="white"/>
<mask id="path-2-outside-1_0_1" maskUnits="userSpaceOnUse" x="0" y="9" width="271" height="54" fill="black">
<rect fill="white" y="9" width="271" height="54"/>
<path d="M40.9375 37.4375C40.9375 41.8958 40.1667 45.8125 38.625 49.1875C37.0833 52.5417 34.875 55.125 32 56.9375C29.1458 58.7292 25.8542 59.625 22.125 59.625C18.4375 59.625 15.1458 58.7292 12.25 56.9375C9.375 55.125 7.14583 52.5521 5.5625 49.2188C4 45.8854 3.20833 42.0417 3.1875 37.6875V35.125C3.1875 30.6875 3.96875 26.7708 5.53125 23.375C7.11458 19.9792 9.33333 17.3854 12.1875 15.5938C15.0625 13.7812 18.3542 12.875 22.0625 12.875C25.7708 12.875 29.0521 13.7708 31.9062 15.5625C34.7812 17.3333 37 19.8958 38.5625 23.25C40.125 26.5833 40.9167 30.4688 40.9375 34.9062V37.4375ZM33.0312 35.0625C33.0312 30.0208 32.0729 26.1562 30.1562 23.4688C28.2604 20.7812 25.5625 19.4375 22.0625 19.4375C18.6458 19.4375 15.9688 20.7812 14.0312 23.4688C12.1146 26.1354 11.1354 29.9167 11.0938 34.8125V37.4375C11.0938 42.4375 12.0625 46.3021 14 49.0312C15.9583 51.7604 18.6667 53.125 22.125 53.125C25.625 53.125 28.3125 51.7917 30.1875 49.125C32.0833 46.4583 33.0312 42.5625 33.0312 37.4375V35.0625ZM75.0312 39.7188H56.7188V59H48.8125V13.5H77.7188V19.875H56.7188V33.4062H75.0312V39.7188ZM110.594 38.6875H91.9062V52.6875H113.75V59H84V13.5H113.531V19.875H91.9062V32.4375H110.594V38.6875ZM136.906 41.4688H128.094V59H120.188V13.5H136.188C141.438 13.5 145.49 14.6771 148.344 17.0312C151.198 19.3854 152.625 22.7917 152.625 27.25C152.625 30.2917 151.885 32.8438 150.406 34.9062C148.948 36.9479 146.906 38.5208 144.281 39.625L154.5 58.5938V59H146.031L136.906 41.4688ZM128.094 35.125H136.219C138.885 35.125 140.969 34.4583 142.469 33.125C143.969 31.7708 144.719 29.9271 144.719 27.5938C144.719 25.1562 144.021 23.2708 142.625 21.9375C141.25 20.6042 139.188 19.9167 136.438 19.875H128.094V35.125ZM191.438 19.875H177.25V59H169.406V19.875H155.344V13.5H191.438V19.875ZM219.156 48.4062H201.531L197.844 59H189.625L206.812 13.5H213.906L231.125 59H222.875L219.156 48.4062ZM203.75 42.0312H216.938L210.344 23.1562L203.75 42.0312ZM260.094 47.2812C260.094 45.2812 259.385 43.7396 257.969 42.6562C256.573 41.5729 254.042 40.4792 250.375 39.375C246.708 38.2708 243.792 37.0417 241.625 35.6875C237.479 33.0833 235.406 29.6875 235.406 25.5C235.406 21.8333 236.896 18.8125 239.875 16.4375C242.875 14.0625 246.76 12.875 251.531 12.875C254.698 12.875 257.521 13.4583 260 14.625C262.479 15.7917 264.427 17.4583 265.844 19.625C267.26 21.7708 267.969 24.1562 267.969 26.7812H260.094C260.094 24.4062 259.344 22.5521 257.844 21.2188C256.365 19.8646 254.24 19.1875 251.469 19.1875C248.885 19.1875 246.875 19.7396 245.438 20.8438C244.021 21.9479 243.312 23.4896 243.312 25.4688C243.312 27.1354 244.083 28.5312 245.625 29.6562C247.167 30.7604 249.708 31.8438 253.25 32.9062C256.792 33.9479 259.635 35.1458 261.781 36.5C263.927 37.8333 265.5 39.375 266.5 41.125C267.5 42.8542 268 44.8854 268 47.2188C268 51.0104 266.542 54.0312 263.625 56.2812C260.729 58.5104 256.792 59.625 251.812 59.625C248.521 59.625 245.49 59.0208 242.719 57.8125C239.969 56.5833 237.823 54.8958 236.281 52.75C234.76 50.6042 234 48.1042 234 45.25H241.906C241.906 47.8333 242.76 49.8333 244.469 51.25C246.177 52.6667 248.625 53.375 251.812 53.375C254.562 53.375 256.625 52.8229 258 51.7188C259.396 50.5938 260.094 49.1146 260.094 47.2812Z"/>
</mask>
<g filter="url(#filter0_i_0_1)">
<path d="M40.9375 37.4375C40.9375 41.8958 40.1667 45.8125 38.625 49.1875C37.0833 52.5417 34.875 55.125 32 56.9375C29.1458 58.7292 25.8542 59.625 22.125 59.625C18.4375 59.625 15.1458 58.7292 12.25 56.9375C9.375 55.125 7.14583 52.5521 5.5625 49.2188C4 45.8854 3.20833 42.0417 3.1875 37.6875V35.125C3.1875 30.6875 3.96875 26.7708 5.53125 23.375C7.11458 19.9792 9.33333 17.3854 12.1875 15.5938C15.0625 13.7812 18.3542 12.875 22.0625 12.875C25.7708 12.875 29.0521 13.7708 31.9062 15.5625C34.7812 17.3333 37 19.8958 38.5625 23.25C40.125 26.5833 40.9167 30.4688 40.9375 34.9062V37.4375ZM33.0312 35.0625C33.0312 30.0208 32.0729 26.1562 30.1562 23.4688C28.2604 20.7812 25.5625 19.4375 22.0625 19.4375C18.6458 19.4375 15.9688 20.7812 14.0312 23.4688C12.1146 26.1354 11.1354 29.9167 11.0938 34.8125V37.4375C11.0938 42.4375 12.0625 46.3021 14 49.0312C15.9583 51.7604 18.6667 53.125 22.125 53.125C25.625 53.125 28.3125 51.7917 30.1875 49.125C32.0833 46.4583 33.0312 42.5625 33.0312 37.4375V35.0625ZM75.0312 39.7188H56.7188V59H48.8125V13.5H77.7188V19.875H56.7188V33.4062H75.0312V39.7188ZM110.594 38.6875H91.9062V52.6875H113.75V59H84V13.5H113.531V19.875H91.9062V32.4375H110.594V38.6875ZM136.906 41.4688H128.094V59H120.188V13.5H136.188C141.438 13.5 145.49 14.6771 148.344 17.0312C151.198 19.3854 152.625 22.7917 152.625 27.25C152.625 30.2917 151.885 32.8438 150.406 34.9062C148.948 36.9479 146.906 38.5208 144.281 39.625L154.5 58.5938V59H146.031L136.906 41.4688ZM128.094 35.125H136.219C138.885 35.125 140.969 34.4583 142.469 33.125C143.969 31.7708 144.719 29.9271 144.719 27.5938C144.719 25.1562 144.021 23.2708 142.625 21.9375C141.25 20.6042 139.188 19.9167 136.438 19.875H128.094V35.125ZM191.438 19.875H177.25V59H169.406V19.875H155.344V13.5H191.438V19.875ZM219.156 48.4062H201.531L197.844 59H189.625L206.812 13.5H213.906L231.125 59H222.875L219.156 48.4062ZM203.75 42.0312H216.938L210.344 23.1562L203.75 42.0312ZM260.094 47.2812C260.094 45.2812 259.385 43.7396 257.969 42.6562C256.573 41.5729 254.042 40.4792 250.375 39.375C246.708 38.2708 243.792 37.0417 241.625 35.6875C237.479 33.0833 235.406 29.6875 235.406 25.5C235.406 21.8333 236.896 18.8125 239.875 16.4375C242.875 14.0625 246.76 12.875 251.531 12.875C254.698 12.875 257.521 13.4583 260 14.625C262.479 15.7917 264.427 17.4583 265.844 19.625C267.26 21.7708 267.969 24.1562 267.969 26.7812H260.094C260.094 24.4062 259.344 22.5521 257.844 21.2188C256.365 19.8646 254.24 19.1875 251.469 19.1875C248.885 19.1875 246.875 19.7396 245.438 20.8438C244.021 21.9479 243.312 23.4896 243.312 25.4688C243.312 27.1354 244.083 28.5312 245.625 29.6562C247.167 30.7604 249.708 31.8438 253.25 32.9062C256.792 33.9479 259.635 35.1458 261.781 36.5C263.927 37.8333 265.5 39.375 266.5 41.125C267.5 42.8542 268 44.8854 268 47.2188C268 51.0104 266.542 54.0312 263.625 56.2812C260.729 58.5104 256.792 59.625 251.812 59.625C248.521 59.625 245.49 59.0208 242.719 57.8125C239.969 56.5833 237.823 54.8958 236.281 52.75C234.76 50.6042 234 48.1042 234 45.25H241.906C241.906 47.8333 242.76 49.8333 244.469 51.25C246.177 52.6667 248.625 53.375 251.812 53.375C254.562 53.375 256.625 52.8229 258 51.7188C259.396 50.5938 260.094 49.1146 260.094 47.2812Z" fill="white"/>
</g>
<path d="M38.625 49.1875L41.3509 50.4404L41.3538 50.434L38.625 49.1875ZM32 56.9375L33.595 59.4784L33.5999 59.4753L32 56.9375ZM12.25 56.9375L10.6501 59.4753L10.6608 59.482L10.6716 59.4887L12.25 56.9375ZM5.5625 49.2188L2.84612 50.4921L2.84938 50.499L2.85267 50.5059L5.5625 49.2188ZM3.1875 37.6875H0.1875V37.6947L0.187534 37.7019L3.1875 37.6875ZM5.53125 23.375L2.81227 22.1073L2.80907 22.1141L2.80591 22.121L5.53125 23.375ZM12.1875 15.5938L13.7825 18.1346L13.7874 18.1315L12.1875 15.5938ZM31.9062 15.5625L30.3113 18.1034L30.3221 18.1101L30.3329 18.1168L31.9062 15.5625ZM38.5625 23.25L35.8431 24.5168L35.8461 24.5233L38.5625 23.25ZM40.9375 34.9062H43.9375L43.9375 34.8922L40.9375 34.9062ZM30.1562 23.4688L27.7048 25.1981L27.7093 25.2044L27.7138 25.2107L30.1562 23.4688ZM14.0312 23.4688L11.5977 21.7143L11.5952 21.7178L14.0312 23.4688ZM11.0938 34.8125L8.09386 34.787L8.09375 34.7997V34.8125H11.0938ZM14 49.0312L11.5538 50.7679L11.5582 50.7741L11.5626 50.7802L14 49.0312ZM30.1875 49.125L27.7424 47.3867L27.7379 47.3931L27.7334 47.3995L30.1875 49.125ZM37.9375 37.4375C37.9375 41.551 37.2268 45.028 35.8962 47.941L41.3538 50.434C43.1065 46.597 43.9375 42.2407 43.9375 37.4375H37.9375ZM35.8991 47.9346C34.5785 50.8079 32.7408 52.9241 30.4001 54.3997L33.5999 59.4753C37.0092 57.3259 39.5882 54.2754 41.3509 50.4404L35.8991 47.9346ZM30.405 54.3966C28.0788 55.8569 25.3521 56.625 22.125 56.625V62.625C26.3563 62.625 30.2129 61.6014 33.595 59.4784L30.405 54.3966ZM22.125 56.625C18.9471 56.625 16.2108 55.8603 13.8284 54.3863L10.6716 59.4887C14.0808 61.598 17.9279 62.625 22.125 62.625V56.625ZM13.8499 54.3997C11.4971 52.9164 9.63346 50.7971 8.27233 47.9316L2.85267 50.5059C4.65821 54.3071 7.25288 57.3336 10.6501 59.4753L13.8499 54.3997ZM8.27888 47.9454C6.93183 45.0717 6.20659 41.6707 6.18747 37.6731L0.187534 37.7019C0.210074 42.4126 1.06817 46.6991 2.84612 50.4921L8.27888 47.9454ZM6.1875 37.6875V35.125H0.1875V37.6875H6.1875ZM6.1875 35.125C6.1875 31.0404 6.90575 27.5648 8.25659 24.629L2.80591 22.121C1.03175 25.9768 0.1875 30.3346 0.1875 35.125H6.1875ZM8.25023 24.6427C9.61761 21.7101 11.4715 19.5853 13.7825 18.1346L10.5925 13.0529C7.19514 15.1855 4.61155 18.2483 2.81227 22.1073L8.25023 24.6427ZM13.7874 18.1315C16.14 16.6483 18.8668 15.875 22.0625 15.875V9.875C17.8415 9.875 13.985 10.9142 10.5876 13.056L13.7874 18.1315ZM22.0625 15.875C25.2652 15.875 27.9823 16.6414 30.3113 18.1034L33.5012 13.0216C30.1218 10.9002 26.2764 9.875 22.0625 9.875V15.875ZM30.3329 18.1168C32.6605 19.5505 34.5037 21.6416 35.8431 24.5168L41.2819 21.9832C39.4963 18.1501 36.902 15.1162 33.4796 13.0082L30.3329 18.1168ZM35.8461 24.5233C37.1898 27.3899 37.9183 30.8302 37.9375 34.9203L43.9375 34.8922C43.915 30.1073 43.0602 25.7768 41.2789 21.9767L35.8461 24.5233ZM37.9375 34.9062V37.4375H43.9375V34.9062H37.9375ZM36.0312 35.0625C36.0312 29.7053 35.0236 25.1269 32.5987 21.7268L27.7138 25.2107C29.1223 27.1856 30.0312 30.3363 30.0312 35.0625H36.0312ZM32.6077 21.7394C30.1086 18.1967 26.4639 16.4375 22.0625 16.4375V22.4375C24.6611 22.4375 26.4123 23.3658 27.7048 25.1981L32.6077 21.7394ZM22.0625 16.4375C17.7173 16.4375 14.1196 18.2162 11.5977 21.7143L16.4648 25.2232C17.8179 23.3463 19.5744 22.4375 22.0625 22.4375V16.4375ZM11.5952 21.7178C9.17908 25.0794 8.13835 29.5593 8.09386 34.787L14.0936 34.838C14.1325 30.274 15.0501 27.1914 16.4673 25.2197L11.5952 21.7178ZM8.09375 34.8125V37.4375H14.0938V34.8125H8.09375ZM8.09375 37.4375C8.09375 42.769 9.118 47.3369 11.5538 50.7679L16.4462 47.2946C15.007 45.2673 14.0938 42.106 14.0938 37.4375H8.09375ZM11.5626 50.7802C14.1039 54.3218 17.7339 56.125 22.125 56.125V50.125C19.5994 50.125 17.8128 49.199 16.4374 47.2823L11.5626 50.7802ZM22.125 56.125C26.5171 56.125 30.1578 54.383 32.6416 50.8505L27.7334 47.3995C26.4672 49.2003 24.7329 50.125 22.125 50.125V56.125ZM32.6326 50.8633C35.0415 47.4749 36.0312 42.8579 36.0312 37.4375H30.0312C30.0312 42.2671 29.1251 45.4418 27.7424 47.3867L32.6326 50.8633ZM36.0312 37.4375V35.0625H30.0312V37.4375H36.0312ZM75.0312 39.7188V42.7188H78.0312V39.7188H75.0312ZM56.7188 39.7188V36.7188H53.7188V39.7188H56.7188ZM56.7188 59V62H59.7188V59H56.7188ZM48.8125 59H45.8125V62H48.8125V59ZM48.8125 13.5V10.5H45.8125V13.5H48.8125ZM77.7188 13.5H80.7188V10.5H77.7188V13.5ZM77.7188 19.875V22.875H80.7188V19.875H77.7188ZM56.7188 19.875V16.875H53.7188V19.875H56.7188ZM56.7188 33.4062H53.7188V36.4062H56.7188V33.4062ZM75.0312 33.4062H78.0312V30.4062H75.0312V33.4062ZM75.0312 36.7188H56.7188V42.7188H75.0312V36.7188ZM53.7188 39.7188V59H59.7188V39.7188H53.7188ZM56.7188 56H48.8125V62H56.7188V56ZM51.8125 59V13.5H45.8125V59H51.8125ZM48.8125 16.5H77.7188V10.5H48.8125V16.5ZM74.7188 13.5V19.875H80.7188V13.5H74.7188ZM77.7188 16.875H56.7188V22.875H77.7188V16.875ZM53.7188 19.875V33.4062H59.7188V19.875H53.7188ZM56.7188 36.4062H75.0312V30.4062H56.7188V36.4062ZM72.0312 33.4062V39.7188H78.0312V33.4062H72.0312ZM110.594 38.6875V41.6875H113.594V38.6875H110.594ZM91.9062 38.6875V35.6875H88.9062V38.6875H91.9062ZM91.9062 52.6875H88.9062V55.6875H91.9062V52.6875ZM113.75 52.6875H116.75V49.6875H113.75V52.6875ZM113.75 59V62H116.75V59H113.75ZM84 59H81V62H84V59ZM84 13.5V10.5H81V13.5H84ZM113.531 13.5H116.531V10.5H113.531V13.5ZM113.531 19.875V22.875H116.531V19.875H113.531ZM91.9062 19.875V16.875H88.9062V19.875H91.9062ZM91.9062 32.4375H88.9062V35.4375H91.9062V32.4375ZM110.594 32.4375H113.594V29.4375H110.594V32.4375ZM110.594 35.6875H91.9062V41.6875H110.594V35.6875ZM88.9062 38.6875V52.6875H94.9062V38.6875H88.9062ZM91.9062 55.6875H113.75V49.6875H91.9062V55.6875ZM110.75 52.6875V59H116.75V52.6875H110.75ZM113.75 56H84V62H113.75V56ZM87 59V13.5H81V59H87ZM84 16.5H113.531V10.5H84V16.5ZM110.531 13.5V19.875H116.531V13.5H110.531ZM113.531 16.875H91.9062V22.875H113.531V16.875ZM88.9062 19.875V32.4375H94.9062V19.875H88.9062ZM91.9062 35.4375H110.594V29.4375H91.9062V35.4375ZM107.594 32.4375V38.6875H113.594V32.4375H107.594ZM136.906 41.4688L139.567 40.0836L138.727 38.4688H136.906V41.4688ZM128.094 41.4688V38.4688H125.094V41.4688H128.094ZM128.094 59V62H131.094V59H128.094ZM120.188 59H117.188V62H120.188V59ZM120.188 13.5V10.5H117.188V13.5H120.188ZM148.344 17.0312L150.253 14.7169L148.344 17.0312ZM150.406 34.9062L147.968 33.1579L147.965 33.1625L150.406 34.9062ZM144.281 39.625L143.118 36.8597L140.074 38.1402L141.64 41.0478L144.281 39.625ZM154.5 58.5938H157.5V57.8371L157.141 57.1709L154.5 58.5938ZM154.5 59V62H157.5V59H154.5ZM146.031 59L143.37 60.3851L144.211 62H146.031V59ZM128.094 35.125H125.094V38.125H128.094V35.125ZM142.469 33.125L144.462 35.3672L144.47 35.3596L144.479 35.3518L142.469 33.125ZM142.625 21.9375L140.537 24.0912L140.545 24.099L140.553 24.1068L142.625 21.9375ZM136.438 19.875L136.483 16.8753L136.46 16.875H136.438V19.875ZM128.094 19.875V16.875H125.094V19.875H128.094ZM136.906 38.4688H128.094V44.4688H136.906V38.4688ZM125.094 41.4688V59H131.094V41.4688H125.094ZM128.094 56H120.188V62H128.094V56ZM123.188 59V13.5H117.188V59H123.188ZM120.188 16.5H136.188V10.5H120.188V16.5ZM136.188 16.5C141.028 16.5 144.304 17.5881 146.435 19.3456L150.253 14.7169C146.675 11.7661 141.847 10.5 136.188 10.5V16.5ZM146.435 19.3456C148.456 21.0123 149.625 23.4846 149.625 27.25H155.625C155.625 22.0987 153.94 17.7585 150.253 14.7169L146.435 19.3456ZM149.625 27.25C149.625 29.7918 149.014 31.6996 147.968 33.1579L152.844 36.6546C154.757 33.9879 155.625 30.7915 155.625 27.25H149.625ZM147.965 33.1625C146.872 34.6931 145.301 35.9413 143.118 36.8597L145.444 42.3903C148.511 41.1004 151.024 39.2027 152.847 36.65L147.965 33.1625ZM141.64 41.0478L151.859 60.0166L157.141 57.1709L146.922 38.2022L141.64 41.0478ZM151.5 58.5938V59H157.5V58.5938H151.5ZM154.5 56H146.031V62H154.5V56ZM148.692 57.6149L139.567 40.0836L134.245 42.8539L143.37 60.3851L148.692 57.6149ZM128.094 38.125H136.219V32.125H128.094V38.125ZM136.219 38.125C139.375 38.125 142.253 37.3303 144.462 35.3672L140.476 30.8828C139.684 31.5863 138.396 32.125 136.219 32.125V38.125ZM144.479 35.3518C146.709 33.3387 147.719 30.6314 147.719 27.5938H141.719C141.719 29.2228 141.228 30.203 140.458 30.8982L144.479 35.3518ZM147.719 27.5938C147.719 24.5651 146.833 21.8079 144.697 19.7682L140.553 24.1068C141.209 24.7337 141.719 25.7474 141.719 27.5938H147.719ZM144.713 19.7838C142.591 17.7256 139.665 16.9236 136.483 16.8753L136.392 22.8747C138.71 22.9098 139.909 23.4827 140.537 24.0912L144.713 19.7838ZM136.438 16.875H128.094V22.875H136.438V16.875ZM125.094 19.875V35.125H131.094V19.875H125.094ZM191.438 19.875V22.875H194.438V19.875H191.438ZM177.25 19.875V16.875H174.25V19.875H177.25ZM177.25 59V62H180.25V59H177.25ZM169.406 59H166.406V62H169.406V59ZM169.406 19.875H172.406V16.875H169.406V19.875ZM155.344 19.875H152.344V22.875H155.344V19.875ZM155.344 13.5V10.5H152.344V13.5H155.344ZM191.438 13.5H194.438V10.5H191.438V13.5ZM191.438 16.875H177.25V22.875H191.438V16.875ZM174.25 19.875V59H180.25V19.875H174.25ZM177.25 56H169.406V62H177.25V56ZM172.406 59V19.875H166.406V59H172.406ZM169.406 16.875H155.344V22.875H169.406V16.875ZM158.344 19.875V13.5H152.344V19.875H158.344ZM155.344 16.5H191.438V10.5H155.344V16.5ZM188.438 13.5V19.875H194.438V13.5H188.438ZM219.156 48.4062L221.987 47.4126L221.283 45.4062H219.156V48.4062ZM201.531 48.4062V45.4062H199.399L198.698 47.42L201.531 48.4062ZM197.844 59V62H199.976L200.677 59.9862L197.844 59ZM189.625 59L186.819 57.9399L185.285 62H189.625V59ZM206.812 13.5V10.5H204.739L204.006 12.4399L206.812 13.5ZM213.906 13.5L216.712 12.4382L215.979 10.5H213.906V13.5ZM231.125 59V62H235.468L233.931 57.9382L231.125 59ZM222.875 59L220.044 59.9937L220.749 62H222.875V59ZM203.75 42.0312L200.918 41.0419L199.524 45.0312H203.75V42.0312ZM216.938 42.0312V45.0312H221.163L219.77 41.0419L216.938 42.0312ZM210.344 23.1562L213.176 22.1669L210.344 14.0596L207.512 22.1669L210.344 23.1562ZM219.156 45.4062H201.531V51.4062H219.156V45.4062ZM198.698 47.42L195.01 58.0138L200.677 59.9862L204.365 49.3925L198.698 47.42ZM197.844 56H189.625V62H197.844V56ZM192.431 60.0601L209.619 14.5601L204.006 12.4399L186.819 57.9399L192.431 60.0601ZM206.812 16.5H213.906V10.5H206.812V16.5ZM211.1 14.5618L228.319 60.0618L233.931 57.9382L216.712 12.4382L211.1 14.5618ZM231.125 56H222.875V62H231.125V56ZM225.706 58.0063L221.987 47.4126L216.326 49.3999L220.044 59.9937L225.706 58.0063ZM203.75 45.0312H216.938V39.0312H203.75V45.0312ZM219.77 41.0419L213.176 22.1669L207.512 24.1456L214.105 43.0206L219.77 41.0419ZM207.512 22.1669L200.918 41.0419L206.582 43.0206L213.176 24.1456L207.512 22.1669ZM257.969 42.6562L256.129 45.0262L256.138 45.0328L256.146 45.0393L257.969 42.6562ZM241.625 35.6875L240.029 38.2279L240.035 38.2315L241.625 35.6875ZM239.875 16.4375L238.013 14.0853L238.005 14.0917L239.875 16.4375ZM265.844 19.625L263.333 21.2668L263.34 21.2779L265.844 19.625ZM267.969 26.7812V29.7812H270.969V26.7812H267.969ZM260.094 26.7812H257.094V29.7812H260.094V26.7812ZM257.844 21.2188L255.818 23.4315L255.834 23.4464L255.851 23.461L257.844 21.2188ZM245.438 20.8438L243.61 18.4646L243.602 18.4711L243.593 18.4776L245.438 20.8438ZM245.625 29.6562L243.857 32.0796L243.867 32.0875L243.878 32.0952L245.625 29.6562ZM253.25 32.9062L252.388 35.7797L252.396 35.7821L252.404 35.7843L253.25 32.9062ZM261.781 36.5L260.18 39.0371L260.189 39.0426L260.198 39.0482L261.781 36.5ZM266.5 41.125L263.895 42.6134L263.899 42.6202L263.903 42.6269L266.5 41.125ZM263.625 56.2812L265.455 58.6585L265.457 58.6566L263.625 56.2812ZM242.719 57.8125L241.495 60.5514L241.507 60.5569L241.52 60.5624L242.719 57.8125ZM236.281 52.75L233.834 54.4847L233.839 54.4926L233.845 54.5004L236.281 52.75ZM234 45.25V42.25H231V45.25H234ZM241.906 45.25H244.906V42.25H241.906V45.25ZM258 51.7188L259.878 54.0579L259.883 54.0545L258 51.7188ZM263.094 47.2812C263.094 44.4766 262.047 41.9986 259.791 40.2732L256.146 45.0393C256.723 45.4806 257.094 46.0859 257.094 47.2812H263.094ZM259.808 40.2863C257.942 38.8379 254.944 37.6179 251.24 36.5024L249.51 42.2476C253.139 43.3404 255.204 44.3079 256.129 45.0262L259.808 40.2863ZM251.24 36.5024C247.715 35.4409 245.073 34.305 243.215 33.1435L240.035 38.2315C242.51 39.7783 245.702 41.1007 249.51 42.2476L251.24 36.5024ZM243.221 33.1471C239.776 30.9831 238.406 28.4664 238.406 25.5H232.406C232.406 30.9086 235.183 35.1836 240.029 38.2279L243.221 33.1471ZM238.406 25.5C238.406 22.7871 239.448 20.6149 241.745 18.7833L238.005 14.0917C234.344 17.0101 232.406 20.8796 232.406 25.5H238.406ZM241.737 18.7896C244.087 16.9291 247.266 15.875 251.531 15.875V9.875C246.255 9.875 241.663 11.1959 238.013 14.0854L241.737 18.7896ZM251.531 15.875C254.325 15.875 256.701 16.388 258.723 17.3395L261.277 11.9105C258.341 10.5287 255.071 9.875 251.531 9.875V15.875ZM258.723 17.3395C260.73 18.2841 262.238 19.5925 263.333 21.2667L268.355 17.9833C266.616 15.3242 264.228 13.2993 261.277 11.9105L258.723 17.3395ZM263.34 21.2779C264.426 22.9225 264.969 24.7309 264.969 26.7812H270.969C270.969 23.5816 270.095 20.6192 268.347 17.9721L263.34 21.2779ZM267.969 23.7812H260.094V29.7812H267.969V23.7812ZM263.094 26.7812C263.094 23.7216 262.096 20.9844 259.837 18.9765L255.851 23.461C256.592 24.1198 257.094 25.0909 257.094 26.7812H263.094ZM259.87 19.006C257.656 16.9797 254.701 16.1875 251.469 16.1875V22.1875C253.778 22.1875 255.073 22.7494 255.818 23.4315L259.87 19.006ZM251.469 16.1875C248.498 16.1875 245.753 16.8182 243.61 18.4646L247.265 23.2229C247.997 22.6609 249.273 22.1875 251.469 22.1875V16.1875ZM243.593 18.4776C241.366 20.2134 240.312 22.6728 240.312 25.4688H246.312C246.312 24.3063 246.676 23.6824 247.282 23.2099L243.593 18.4776ZM240.312 25.4688C240.312 28.2425 241.67 30.4838 243.857 32.0796L247.393 27.2329C246.497 26.5787 246.312 26.0284 246.312 25.4688H240.312ZM243.878 32.0952C245.837 33.4981 248.771 34.6946 252.388 35.7797L254.112 30.0328C250.646 28.9929 248.496 28.0227 247.372 27.2173L243.878 32.0952ZM252.404 35.7843C255.788 36.7799 258.349 37.8814 260.18 39.0371L263.382 33.9629C260.922 32.4103 257.795 31.1159 254.096 30.0282L252.404 35.7843ZM260.198 39.0482C262.026 40.184 263.197 41.3922 263.895 42.6134L269.105 39.6366C267.803 37.3578 265.828 35.4827 263.365 33.9518L260.198 39.0482ZM263.903 42.6269C264.598 43.8278 265 45.3233 265 47.2188H271C271 44.4476 270.402 41.8805 269.097 39.6231L263.903 42.6269ZM265 47.2188C265 50.1123 263.948 52.2431 261.793 53.9059L265.457 58.6566C269.135 55.8194 271 51.9085 271 47.2188H265ZM261.795 53.904C259.585 55.6053 256.367 56.625 251.812 56.625V62.625C257.216 62.625 261.873 61.4156 265.455 58.6585L261.795 53.904ZM251.812 56.625C248.896 56.625 246.278 56.0918 243.918 55.0626L241.52 60.5624C244.701 61.9499 248.145 62.625 251.812 62.625V56.625ZM243.943 55.0736C241.608 54.0301 239.908 52.657 238.718 50.9996L233.845 54.5004C235.737 57.1346 238.329 59.1365 241.495 60.5514L243.943 55.0736ZM238.729 51.0153C237.598 49.4202 237 47.5384 237 45.25H231C231 48.6699 231.923 51.7882 233.834 54.4847L238.729 51.0153ZM234 48.25H241.906V42.25H234V48.25ZM238.906 45.25C238.906 48.563 240.042 51.4761 242.554 53.5593L246.384 48.9407C245.479 48.1906 244.906 47.1037 244.906 45.25H238.906ZM242.554 53.5593C244.992 55.5817 248.224 56.375 251.812 56.375V50.375C249.026 50.375 247.362 49.7517 246.384 48.9407L242.554 53.5593ZM251.812 56.375C254.885 56.375 257.745 55.7711 259.878 54.0579L256.122 49.3796C255.505 49.8747 254.24 50.375 251.812 50.375V56.375ZM259.883 54.0545C262.003 52.3452 263.094 49.9982 263.094 47.2812H257.094C257.094 48.2309 256.788 48.8423 256.117 49.383L259.883 54.0545Z" fill="#9758A6" mask="url(#path-2-outside-1_0_1)"/>
</g>
<defs>
<filter id="filter0_i_0_1" x="3.1875" y="12.875" width="264.812" height="50.75" filterUnits="userSpaceOnUse" color-interpolation-filters="sRGB">
<feFlood flood-opacity="0" result="BackgroundImageFix"/>
<feBlend mode="normal" in="SourceGraphic" in2="BackgroundImageFix" result="shape"/>
<feColorMatrix in="SourceAlpha" type="matrix" values="0 0 0 0 0 0 0 0 0 0 0 0 0 0 0 0 0 0 127 0" result="hardAlpha"/>
<feOffset dy="4"/>
<feGaussianBlur stdDeviation="2"/>
<feComposite in2="hardAlpha" operator="arithmetic" k2="-1" k3="1"/>
<feColorMatrix type="matrix" values="0 0 0 0 0 0 0 0 0 0 0 0 0 0 0 0 0 0 0.25 0"/>
<feBlend mode="normal" in2="shape" result="effect1_innerShadow_0_1"/>
</filter>
<clipPath id="clip0_0_1">
<rect width="1440" height="1890" fill="white" transform="translate(-583 -1244)"/>
</clipPath>
</defs>
</svg>
