<svg width="27" height="24" viewBox="0 0 27 24" fill="none" xmlns="http://www.w3.org/2000/svg">
<path fill-rule="evenodd" clip-rule="evenodd" d="M17.9806 5.53846C17.9806 7.57767 16.1459 9.23077 13.8828 9.23077C11.6197 9.23077 9.78505 7.57767 9.78505 5.53846C9.78505 3.49926 11.6197 1.84615 13.8828 1.84615C16.1459 1.84615 17.9806 3.49926 17.9806 5.53846ZM20.0294 5.53846C20.0294 8.59726 17.2775 11.0769 13.8828 11.0769C10.4881 11.0769 7.73618 8.59726 7.73618 5.53846C7.73618 2.47966 10.4881 0 13.8828 0C17.2775 0 20.0294 2.47966 20.0294 5.53846ZM5.6873 20.3077C5.6873 17.2488 8.43925 14.7692 11.8339 14.7692H15.9317C19.3265 14.7692 22.0783 17.2488 22.0783 20.3077V22.1538H5.6873V20.3077ZM3.63843 20.3077C3.63843 16.2294 7.30768 12.9231 11.8339 12.9231H15.9317C20.4578 12.9231 24.1272 16.2294 24.1272 20.3077V22.1538V24H22.0783H5.6873H3.63843V22.1538V20.3077Z" fill="#9758A6"/>
</svg>
